<svg width="24" height="23" viewBox="0 0 24 23" fill="none" xmlns="http://www.w3.org/2000/svg">
<path d="M3.73141 23C2.97007 23 2.31854 22.7187 1.77683 22.1562C1.23421 21.5927 0.962891 20.9156 0.962891 20.125V10.0625C0.962891 9.27188 1.23421 8.59481 1.77683 8.03131C2.31854 7.46877 2.97007 7.1875 3.73141 7.1875C4.49275 7.1875 5.14428 7.46877 5.68598 8.03131C6.22861 8.59481 6.49993 9.27188 6.49993 10.0625V20.125C6.49993 20.9156 6.22861 21.5927 5.68598 22.1562C5.14428 22.7187 4.49275 23 3.73141 23ZM12.037 23C11.2756 23 10.6241 22.7187 10.0824 22.1562C9.53976 21.5927 9.26845 20.9156 9.26845 20.125V2.875C9.26845 2.08437 9.53976 1.40779 10.0824 0.84525C10.6241 0.28175 11.2756 0 12.037 0C12.7983 0 13.4503 0.28175 13.9929 0.84525C14.5346 1.40779 14.8055 2.08437 14.8055 2.875V20.125C14.8055 20.9156 14.5346 21.5927 13.9929 22.1562C13.4503 22.7187 12.7983 23 12.037 23ZM20.3425 23C19.5812 23 18.9292 22.7187 18.3866 22.1562C17.8449 21.5927 17.574 20.9156 17.574 20.125V15.8125C17.574 15.0219 17.8449 14.3448 18.3866 13.7813C18.9292 13.2188 19.5812 12.9375 20.3425 12.9375C21.1039 12.9375 21.7558 13.2188 22.2985 13.7813C22.8402 14.3448 23.111 15.0219 23.111 15.8125V20.125C23.111 20.9156 22.8402 21.5927 22.2985 22.1562C21.7558 22.7187 21.1039 23 20.3425 23Z" fill="#D9D9D9"/>
</svg>
