<svg width="22" height="24" viewBox="0 0 22 24" fill="none" xmlns="http://www.w3.org/2000/svg">
<path d="M3.125 23.5C2.40312 23.5 1.78537 23.2428 1.27175 22.7285C0.75725 22.2133 0.5 21.5943 0.5 20.8714V9.04286C0.5 8.62667 0.593187 8.23238 0.779562 7.86C0.965062 7.48762 1.22188 7.18095 1.55 6.94L9.425 1.02571C9.66563 0.850476 9.91719 0.719048 10.1797 0.631428C10.4422 0.543809 10.7156 0.5 11 0.5C11.2844 0.5 11.5578 0.543809 11.8203 0.631428C12.0828 0.719048 12.3344 0.850476 12.575 1.02571L20.45 6.94C20.7781 7.18095 21.0354 7.48762 21.2218 7.86C21.4072 8.23238 21.5 8.62667 21.5 9.04286V20.8714C21.5 21.5943 21.2432 22.2133 20.7296 22.7285C20.2151 23.2428 19.5969 23.5 18.875 23.5H13.625V14.3H8.375V23.5H3.125Z" fill="#D9D9D9"/>
</svg>
